<svg xmlns="http://www.w3.org/2000/svg" width="26" height="28" viewBox="0 0 26 28">
    <path d="M17.9282 13.9151L25.3197 6.29258C26.2268 5.35719 26.2268 3.84061 25.3197 2.90446L23.677 1.21039C22.7699 0.275002 21.2993 0.275002 20.3915 1.21039L13 8.83291L5.60847 1.21039C4.70142 0.275002 3.2308 0.275002 2.32301 1.21039L0.680284 2.90446C-0.226761 3.83985 -0.226761 5.35643 0.680284 6.29258L8.07182 13.9151L0.680284 21.5376C-0.226761 22.473 -0.226761 23.9896 0.680284 24.9257L2.32301 26.6198C3.23006 27.5552 4.70142 27.5552 5.60847 26.6198L13 18.9973L20.3915 26.6198C21.2986 27.5552 22.7699 27.5552 23.677 26.6198L25.3197 24.9257C26.2268 23.9904 26.2268 22.4738 25.3197 21.5376L17.9282 13.9151Z"/>
</svg>